<mxfile host="app.diagrams.net" modified="2023-09-18T10:08:10.483Z" agent="Mozilla/5.0 (Windows NT 10.0; Win64; x64) AppleWebKit/537.36 (KHTML, like Gecko) Chrome/117.0.0.0 Safari/537.36" etag="8a_Hgleldbk6WKmV5bIW" version="21.7.5" type="github">
  <diagram name="第 1 页" id="bFISF0cWKj3wCs3VBASJ">
    <mxGraphModel dx="1434" dy="758" grid="1" gridSize="10" guides="1" tooltips="1" connect="1" arrows="1" fold="1" page="1" pageScale="1" pageWidth="827" pageHeight="1169" math="0" shadow="0">
      <root>
        <mxCell id="0" />
        <mxCell id="1" parent="0" />
        <mxCell id="wdixgbKL9RA-rCSzEny8-1" value="BeanDefinition加载后并且实例化之前：&lt;br&gt;提供修改 BeanDefinition 属性的机制&lt;br&gt;&lt;font color=&quot;#ff0080&quot;&gt;BeanFactoryPostProcessor&lt;/font&gt;" style="swimlane;whiteSpace=wrap;html=1;fillColor=#d5e8d4;strokeColor=#82b366;startSize=50;rounded=1;" parent="1" vertex="1">
          <mxGeometry x="10" y="70" width="360" height="90" as="geometry" />
        </mxCell>
        <mxCell id="wdixgbKL9RA-rCSzEny8-2" value="postProcessorBeanFactory(ConfigurableListableBeanFactory fac);&lt;br&gt;" style="text;html=1;align=center;verticalAlign=middle;resizable=0;points=[];autosize=1;strokeColor=none;fillColor=none;rounded=1;" parent="wdixgbKL9RA-rCSzEny8-1" vertex="1">
          <mxGeometry x="-10" y="50" width="380" height="30" as="geometry" />
        </mxCell>
        <mxCell id="wdixgbKL9RA-rCSzEny8-3" value="Bean对象初始化之前和之后处理接口：&lt;font color=&quot;#ff3399&quot;&gt;BeanPostProcessor&lt;/font&gt;" style="swimlane;whiteSpace=wrap;html=1;startSize=30;fillColor=#d5e8d4;strokeColor=#82b366;rounded=1;" parent="1" vertex="1">
          <mxGeometry x="420" y="70" width="387" height="110" as="geometry" />
        </mxCell>
        <mxCell id="wdixgbKL9RA-rCSzEny8-4" value="postProcessorBeforeInitialization(Object bean,String beanName);&lt;br&gt;postProcessorAfterInitialization(Object bean,String beanName);" style="text;html=1;align=center;verticalAlign=middle;resizable=0;points=[];autosize=1;strokeColor=none;fillColor=none;rounded=1;" parent="wdixgbKL9RA-rCSzEny8-3" vertex="1">
          <mxGeometry y="53" width="370" height="40" as="geometry" />
        </mxCell>
        <mxCell id="tML1ufuAJscc37rCXt38-1" value="自定义上下文接口 继承于ListableBeanFactory&lt;br&gt;：&lt;font color=&quot;#ff3399&quot;&gt;appliactionContext&lt;/font&gt;" style="swimlane;whiteSpace=wrap;html=1;rounded=1;startSize=60;fontFamily=Comic Sans MS;fontSize=13;fillColor=#d5e8d4;strokeColor=#82b366;" vertex="1" parent="1">
          <mxGeometry x="70" y="230" width="200" height="90" as="geometry" />
        </mxCell>
        <mxCell id="tML1ufuAJscc37rCXt38-9" style="edgeStyle=orthogonalEdgeStyle;rounded=1;orthogonalLoop=1;jettySize=auto;html=1;exitX=0.5;exitY=0;exitDx=0;exitDy=0;entryX=0.5;entryY=1;entryDx=0;entryDy=0;" edge="1" parent="1" source="tML1ufuAJscc37rCXt38-7" target="tML1ufuAJscc37rCXt38-1">
          <mxGeometry relative="1" as="geometry" />
        </mxCell>
        <mxCell id="tML1ufuAJscc37rCXt38-13" value="继承" style="edgeLabel;html=1;align=center;verticalAlign=middle;resizable=0;points=[];" vertex="1" connectable="0" parent="tML1ufuAJscc37rCXt38-9">
          <mxGeometry x="0.0571" y="-1" relative="1" as="geometry">
            <mxPoint as="offset" />
          </mxGeometry>
        </mxCell>
        <mxCell id="tML1ufuAJscc37rCXt38-7" value="ConfigurableApplicationContext" style="swimlane;whiteSpace=wrap;html=1;rounded=1;fillColor=#d5e8d4;strokeColor=#82b366;" vertex="1" parent="1">
          <mxGeometry x="60" y="390" width="220" height="60" as="geometry" />
        </mxCell>
        <mxCell id="tML1ufuAJscc37rCXt38-8" value="void refresh();" style="text;html=1;align=center;verticalAlign=middle;resizable=0;points=[];autosize=1;strokeColor=none;fillColor=none;" vertex="1" parent="1">
          <mxGeometry x="80" y="418" width="100" height="30" as="geometry" />
        </mxCell>
        <mxCell id="tML1ufuAJscc37rCXt38-16" style="edgeStyle=orthogonalEdgeStyle;rounded=1;orthogonalLoop=1;jettySize=auto;html=1;exitX=0;exitY=0.5;exitDx=0;exitDy=0;entryX=1;entryY=0.75;entryDx=0;entryDy=0;" edge="1" parent="1" source="tML1ufuAJscc37rCXt38-10" target="tML1ufuAJscc37rCXt38-7">
          <mxGeometry relative="1" as="geometry" />
        </mxCell>
        <mxCell id="tML1ufuAJscc37rCXt38-17" value="实现" style="edgeLabel;html=1;align=center;verticalAlign=middle;resizable=0;points=[];" vertex="1" connectable="0" parent="tML1ufuAJscc37rCXt38-16">
          <mxGeometry x="0.0211" y="-4" relative="1" as="geometry">
            <mxPoint as="offset" />
          </mxGeometry>
        </mxCell>
        <mxCell id="tML1ufuAJscc37rCXt38-10" value="应用上下文抽象类实现继承DefaultResourceLoader&amp;nbsp; ：&lt;br&gt;&amp;nbsp;&amp;nbsp;&lt;font color=&quot;#ff0080&quot;&gt;AbstractApplicationContext&lt;/font&gt;" style="swimlane;whiteSpace=wrap;html=1;rounded=1;fillColor=#ffe6cc;strokeColor=#d79b00;startSize=55;" vertex="1" parent="1">
          <mxGeometry x="360" y="240" width="570" height="170" as="geometry" />
        </mxCell>
        <mxCell id="tML1ufuAJscc37rCXt38-15" value="void refresh（）;&lt;br&gt;&lt;div style=&quot;&quot;&gt;&lt;span style=&quot;background-color: transparent; font-size: 0.85em; font-family: source-code-pro, Menlo, Monaco, Consolas, &amp;quot;Courier New&amp;quot;, monospace;&quot; class=&quot;token keyword&quot;&gt;abstract void&lt;/span&gt;&lt;span style=&quot;background-color: transparent; font-size: 0.85em; font-family: source-code-pro, Menlo, Monaco, Consolas, &amp;quot;Courier New&amp;quot;, monospace;&quot;&gt; &lt;/span&gt;&lt;span style=&quot;background-color: transparent; font-size: 0.85em; font-family: source-code-pro, Menlo, Monaco, Consolas, &amp;quot;Courier New&amp;quot;, monospace;&quot; class=&quot;token function&quot;&gt;refreshBeanFactory&lt;/span&gt;&lt;span style=&quot;background-color: transparent; font-size: 0.85em; font-family: source-code-pro, Menlo, Monaco, Consolas, &amp;quot;Courier New&amp;quot;, monospace;&quot; class=&quot;token punctuation&quot;&gt;(&lt;/span&gt;&lt;span style=&quot;background-color: transparent; font-size: 0.85em; font-family: source-code-pro, Menlo, Monaco, Consolas, &amp;quot;Courier New&amp;quot;, monospace;&quot; class=&quot;token punctuation&quot;&gt;);&lt;/span&gt;&lt;/div&gt;&lt;div style=&quot;&quot;&gt;&lt;span style=&quot;background-color: transparent; font-family: source-code-pro, Menlo, Monaco, Consolas, &amp;quot;Courier New&amp;quot;, monospace; font-size: 0.85em;&quot; class=&quot;token class-name&quot;&gt;abstract ConfigurableListableBeanFactory&lt;/span&gt;&lt;span style=&quot;background-color: transparent; font-family: source-code-pro, Menlo, Monaco, Consolas, &amp;quot;Courier New&amp;quot;, monospace; font-size: 0.85em;&quot;&gt; &lt;/span&gt;&lt;span style=&quot;background-color: transparent; font-family: source-code-pro, Menlo, Monaco, Consolas, &amp;quot;Courier New&amp;quot;, monospace; font-size: 0.85em;&quot; class=&quot;token function&quot;&gt;getBeanFactory&lt;/span&gt;&lt;span style=&quot;background-color: transparent; font-family: source-code-pro, Menlo, Monaco, Consolas, &amp;quot;Courier New&amp;quot;, monospace; font-size: 0.85em;&quot; class=&quot;token punctuation&quot;&gt;(&lt;/span&gt;&lt;span style=&quot;background-color: transparent; font-family: source-code-pro, Menlo, Monaco, Consolas, &amp;quot;Courier New&amp;quot;, monospace; font-size: 0.85em;&quot; class=&quot;token punctuation&quot;&gt;)&lt;/span&gt;&lt;span style=&quot;background-color: transparent; font-family: source-code-pro, Menlo, Monaco, Consolas, &amp;quot;Courier New&amp;quot;, monospace; font-size: 0.85em;&quot; class=&quot;token punctuation&quot;&gt;;&lt;/span&gt;&lt;/div&gt;&lt;div style=&quot;&quot;&gt;&lt;span style=&quot;background-color: transparent; font-family: source-code-pro, Menlo, Monaco, Consolas, &amp;quot;Courier New&amp;quot;, monospace; font-size: 0.85em;&quot; class=&quot;token function&quot;&gt;void invokeBeanFactoryPostProcessors&lt;/span&gt;&lt;span style=&quot;background-color: transparent; font-family: source-code-pro, Menlo, Monaco, Consolas, &amp;quot;Courier New&amp;quot;, monospace; font-size: 0.85em;&quot; class=&quot;token punctuation&quot;&gt;(&lt;/span&gt;&lt;span style=&quot;background-color: transparent; font-family: source-code-pro, Menlo, Monaco, Consolas, &amp;quot;Courier New&amp;quot;, monospace; font-size: 0.85em;&quot; class=&quot;token class-name&quot;&gt;ConfigurableListableBeanFactory&lt;/span&gt;&lt;span style=&quot;background-color: transparent; font-family: source-code-pro, Menlo, Monaco, Consolas, &amp;quot;Courier New&amp;quot;, monospace; font-size: 0.85em;&quot;&gt; beanFactory&lt;/span&gt;&lt;span style=&quot;background-color: transparent; font-family: source-code-pro, Menlo, Monaco, Consolas, &amp;quot;Courier New&amp;quot;, monospace; font-size: 0.85em;&quot; class=&quot;token punctuation&quot;&gt;);&lt;/span&gt;&lt;/div&gt;&lt;div style=&quot;&quot;&gt;&lt;span style=&quot;background-color: transparent;&quot; class=&quot;token punctuation&quot;&gt;&lt;font face=&quot;source-code-pro, Menlo, Monaco, Consolas, Courier New, monospace&quot;&gt;void registerBeanPostProcessors(ConfigurableListableBeanFactory beanFactory)；&lt;/font&gt;&lt;br&gt;&lt;/span&gt;&lt;/div&gt;" style="text;html=1;align=left;verticalAlign=middle;resizable=0;points=[];autosize=1;strokeColor=none;fillColor=none;" vertex="1" parent="tML1ufuAJscc37rCXt38-10">
          <mxGeometry x="15" y="60" width="560" height="90" as="geometry" />
        </mxCell>
        <mxCell id="tML1ufuAJscc37rCXt38-20" style="edgeStyle=orthogonalEdgeStyle;rounded=1;orthogonalLoop=1;jettySize=auto;html=1;exitX=0.25;exitY=0;exitDx=0;exitDy=0;" edge="1" parent="1" source="tML1ufuAJscc37rCXt38-18">
          <mxGeometry relative="1" as="geometry">
            <mxPoint x="630" y="410" as="targetPoint" />
          </mxGeometry>
        </mxCell>
        <mxCell id="tML1ufuAJscc37rCXt38-21" value="继承" style="edgeLabel;html=1;align=center;verticalAlign=middle;resizable=0;points=[];" vertex="1" connectable="0" parent="tML1ufuAJscc37rCXt38-20">
          <mxGeometry x="-0.0782" y="-3" relative="1" as="geometry">
            <mxPoint as="offset" />
          </mxGeometry>
        </mxCell>
        <mxCell id="tML1ufuAJscc37rCXt38-18" value="获取Bean工厂和加载资源：&lt;br&gt;AbstractRefreshableApplicatonContext" style="swimlane;whiteSpace=wrap;html=1;rounded=1;startSize=30;fillColor=#d5e8d4;strokeColor=#82b366;" vertex="1" parent="1">
          <mxGeometry x="520" y="500" width="455" height="160" as="geometry" />
        </mxCell>
        <mxCell id="tML1ufuAJscc37rCXt38-19" value="&lt;font style=&quot;font-size: 13px;&quot;&gt;&lt;br&gt;&lt;/font&gt;&lt;div style=&quot;font-size: 13px;&quot;&gt;&lt;span style=&quot;background-color: initial;&quot;&gt;&lt;font style=&quot;font-size: 13px;&quot;&gt;private DefaultListableBeanFactory beanFactory;&lt;/font&gt;&lt;/span&gt;&lt;/div&gt;&lt;font style=&quot;font-size: 13px;&quot;&gt;void refreshBeanFactory();&lt;br&gt;DefaultListableBeanFactory createBeanFactory();&lt;br&gt;void loadBeanDefiniations(DefaultListableBeanFactory beanFactory);&lt;br&gt;DefaultListableBeanDactory getBeanFactory();&lt;/font&gt;" style="text;html=1;align=left;verticalAlign=middle;resizable=0;points=[];autosize=1;strokeColor=none;fillColor=none;fontFamily=Comic Sans MS;spacing=6;spacingTop=7;" vertex="1" parent="tML1ufuAJscc37rCXt38-18">
          <mxGeometry x="5" y="25" width="450" height="120" as="geometry" />
        </mxCell>
        <mxCell id="tML1ufuAJscc37rCXt38-24" style="edgeStyle=orthogonalEdgeStyle;rounded=1;orthogonalLoop=1;jettySize=auto;html=1;exitX=1;exitY=0.5;exitDx=0;exitDy=0;entryX=0;entryY=0.5;entryDx=0;entryDy=0;" edge="1" parent="1" source="tML1ufuAJscc37rCXt38-22" target="tML1ufuAJscc37rCXt38-18">
          <mxGeometry relative="1" as="geometry" />
        </mxCell>
        <mxCell id="tML1ufuAJscc37rCXt38-25" value="继承" style="edgeLabel;html=1;align=center;verticalAlign=middle;resizable=0;points=[];" vertex="1" connectable="0" parent="tML1ufuAJscc37rCXt38-24">
          <mxGeometry x="0.152" relative="1" as="geometry">
            <mxPoint as="offset" />
          </mxGeometry>
        </mxCell>
        <mxCell id="tML1ufuAJscc37rCXt38-22" value="上下文中对配置信息的加载：&lt;br&gt;AbstractXmlApplicationContext" style="swimlane;whiteSpace=wrap;html=1;rounded=1;startSize=30;fillColor=#ffe6cc;strokeColor=#d79b00;fontFamily=Comic Sans MS;" vertex="1" parent="1">
          <mxGeometry x="20" y="500" width="390" height="130" as="geometry" />
        </mxCell>
        <mxCell id="tML1ufuAJscc37rCXt38-23" value="&lt;font face=&quot;Comic Sans MS&quot;&gt;void loadDefiniations(DefaultListableBeanFactory beanFactory);&lt;br&gt;abstract String[] getConfigLocations(String lcoations);&lt;br&gt;&lt;/font&gt;" style="text;html=1;align=center;verticalAlign=middle;resizable=0;points=[];autosize=1;strokeColor=none;fillColor=none;" vertex="1" parent="tML1ufuAJscc37rCXt38-22">
          <mxGeometry x="5" y="65" width="380" height="40" as="geometry" />
        </mxCell>
        <mxCell id="tML1ufuAJscc37rCXt38-28" style="edgeStyle=orthogonalEdgeStyle;rounded=1;orthogonalLoop=1;jettySize=auto;html=1;exitX=1;exitY=0.5;exitDx=0;exitDy=0;" edge="1" parent="1" source="tML1ufuAJscc37rCXt38-26">
          <mxGeometry relative="1" as="geometry">
            <mxPoint x="710" y="660" as="targetPoint" />
          </mxGeometry>
        </mxCell>
        <mxCell id="tML1ufuAJscc37rCXt38-29" value="=继承" style="edgeLabel;html=1;align=center;verticalAlign=middle;resizable=0;points=[];" vertex="1" connectable="0" parent="tML1ufuAJscc37rCXt38-28">
          <mxGeometry x="-0.1019" y="1" relative="1" as="geometry">
            <mxPoint as="offset" />
          </mxGeometry>
        </mxCell>
        <mxCell id="tML1ufuAJscc37rCXt38-26" value="应用上下文实现类：&lt;br&gt;ClassPathXmlApplicationContext" style="swimlane;whiteSpace=wrap;html=1;rounded=1;startSize=40;fillColor=#f5f5f5;strokeColor=#666666;fontColor=#333333;" vertex="1" parent="1">
          <mxGeometry x="110" y="700" width="200" height="130" as="geometry" />
        </mxCell>
        <mxCell id="tML1ufuAJscc37rCXt38-27" value="private String[] configLocaltions&lt;br&gt;&lt;br&gt;String[] getConfigLocations();" style="text;html=1;align=center;verticalAlign=middle;resizable=0;points=[];autosize=1;strokeColor=none;fillColor=none;" vertex="1" parent="tML1ufuAJscc37rCXt38-26">
          <mxGeometry y="45" width="190" height="60" as="geometry" />
        </mxCell>
      </root>
    </mxGraphModel>
  </diagram>
</mxfile>
